G04 #@! TF.GenerationSoftware,KiCad,Pcbnew,(5.1.5)-3*
G04 #@! TF.CreationDate,2020-06-01T19:43:40+09:00*
G04 #@! TF.ProjectId,GPS___ ___ ver 1.1(__ __),47505370-7430-420a-91e0-302076657220,rev?*
G04 #@! TF.SameCoordinates,Original*
G04 #@! TF.FileFunction,Legend,Bot*
G04 #@! TF.FilePolarity,Positive*
%FSLAX46Y46*%
G04 Gerber Fmt 4.6, Leading zero omitted, Abs format (unit mm)*
G04 Created by KiCad (PCBNEW (5.1.5)-3) date 2020-06-01 19:43:40*
%MOMM*%
%LPD*%
G04 APERTURE LIST*
%ADD10C,0.300000*%
%ADD11C,0.400000*%
%ADD12C,0.500000*%
%ADD13C,0.150000*%
%ADD14C,0.120000*%
%ADD15C,0.250000*%
G04 APERTURE END LIST*
D10*
X101589285Y-49963571D02*
X101089285Y-51463571D01*
X100589285Y-49963571D01*
X99517857Y-51392142D02*
X99660714Y-51463571D01*
X99946428Y-51463571D01*
X100089285Y-51392142D01*
X100160714Y-51249285D01*
X100160714Y-50677857D01*
X100089285Y-50535000D01*
X99946428Y-50463571D01*
X99660714Y-50463571D01*
X99517857Y-50535000D01*
X99446428Y-50677857D01*
X99446428Y-50820714D01*
X100160714Y-50963571D01*
X98803571Y-51463571D02*
X98803571Y-50463571D01*
X98803571Y-50749285D02*
X98732142Y-50606428D01*
X98660714Y-50535000D01*
X98517857Y-50463571D01*
X98375000Y-50463571D01*
X95946428Y-51463571D02*
X96803571Y-51463571D01*
X96375000Y-51463571D02*
X96375000Y-49963571D01*
X96517857Y-50177857D01*
X96660714Y-50320714D01*
X96803571Y-50392142D01*
X95303571Y-51320714D02*
X95232142Y-51392142D01*
X95303571Y-51463571D01*
X95375000Y-51392142D01*
X95303571Y-51320714D01*
X95303571Y-51463571D01*
X93803571Y-51463571D02*
X94660714Y-51463571D01*
X94232142Y-51463571D02*
X94232142Y-49963571D01*
X94375000Y-50177857D01*
X94517857Y-50320714D01*
X94660714Y-50392142D01*
X110626190Y-48989761D02*
X110626190Y-46989761D01*
X110626190Y-47751666D02*
X110435714Y-47656428D01*
X110054761Y-47656428D01*
X109864285Y-47751666D01*
X109769047Y-47846904D01*
X109673809Y-48037380D01*
X109673809Y-48608809D01*
X109769047Y-48799285D01*
X109864285Y-48894523D01*
X110054761Y-48989761D01*
X110435714Y-48989761D01*
X110626190Y-48894523D01*
X109007142Y-47656428D02*
X108530952Y-48989761D01*
X108054761Y-47656428D02*
X108530952Y-48989761D01*
X108721428Y-49465952D01*
X108816666Y-49561190D01*
X109007142Y-49656428D01*
X105769047Y-47656428D02*
X105769047Y-49370714D01*
X105864285Y-49561190D01*
X106054761Y-49656428D01*
X106150000Y-49656428D01*
X105769047Y-46989761D02*
X105864285Y-47085000D01*
X105769047Y-47180238D01*
X105673809Y-47085000D01*
X105769047Y-46989761D01*
X105769047Y-47180238D01*
X104816666Y-48989761D02*
X104816666Y-47656428D01*
X104816666Y-47846904D02*
X104721428Y-47751666D01*
X104530952Y-47656428D01*
X104245238Y-47656428D01*
X104054761Y-47751666D01*
X103959523Y-47942142D01*
X103959523Y-48989761D01*
X103959523Y-47942142D02*
X103864285Y-47751666D01*
X103673809Y-47656428D01*
X103388095Y-47656428D01*
X103197619Y-47751666D01*
X103102380Y-47942142D01*
X103102380Y-48989761D01*
X102150000Y-48989761D02*
X102150000Y-46989761D01*
X101292857Y-48989761D02*
X101292857Y-47942142D01*
X101388095Y-47751666D01*
X101578571Y-47656428D01*
X101864285Y-47656428D01*
X102054761Y-47751666D01*
X102150000Y-47846904D01*
X100054761Y-47846904D02*
X100245238Y-47751666D01*
X100340476Y-47656428D01*
X100435714Y-47465952D01*
X100435714Y-47370714D01*
X100340476Y-47180238D01*
X100245238Y-47085000D01*
X100054761Y-46989761D01*
X99673809Y-46989761D01*
X99483333Y-47085000D01*
X99388095Y-47180238D01*
X99292857Y-47370714D01*
X99292857Y-47465952D01*
X99388095Y-47656428D01*
X99483333Y-47751666D01*
X99673809Y-47846904D01*
X100054761Y-47846904D01*
X100245238Y-47942142D01*
X100340476Y-48037380D01*
X100435714Y-48227857D01*
X100435714Y-48608809D01*
X100340476Y-48799285D01*
X100245238Y-48894523D01*
X100054761Y-48989761D01*
X99673809Y-48989761D01*
X99483333Y-48894523D01*
X99388095Y-48799285D01*
X99292857Y-48608809D01*
X99292857Y-48227857D01*
X99388095Y-48037380D01*
X99483333Y-47942142D01*
X99673809Y-47846904D01*
X98530952Y-47180238D02*
X98435714Y-47085000D01*
X98245238Y-46989761D01*
X97769047Y-46989761D01*
X97578571Y-47085000D01*
X97483333Y-47180238D01*
X97388095Y-47370714D01*
X97388095Y-47561190D01*
X97483333Y-47846904D01*
X98626190Y-48989761D01*
X97388095Y-48989761D01*
X96721428Y-46989761D02*
X95483333Y-46989761D01*
X96150000Y-47751666D01*
X95864285Y-47751666D01*
X95673809Y-47846904D01*
X95578571Y-47942142D01*
X95483333Y-48132619D01*
X95483333Y-48608809D01*
X95578571Y-48799285D01*
X95673809Y-48894523D01*
X95864285Y-48989761D01*
X96435714Y-48989761D01*
X96626190Y-48894523D01*
X96721428Y-48799285D01*
X93578571Y-48989761D02*
X94721428Y-48989761D01*
X94150000Y-48989761D02*
X94150000Y-46989761D01*
X94340476Y-47275476D01*
X94530952Y-47465952D01*
X94721428Y-47561190D01*
D11*
X148635714Y-47002857D02*
X148492857Y-46860000D01*
X148207142Y-46717142D01*
X147492857Y-46717142D01*
X147207142Y-46860000D01*
X147064285Y-47002857D01*
X146921428Y-47288571D01*
X146921428Y-47574285D01*
X147064285Y-48002857D01*
X148778571Y-49717142D01*
X146921428Y-49717142D01*
X145064285Y-46717142D02*
X144778571Y-46717142D01*
X144492857Y-46860000D01*
X144350000Y-47002857D01*
X144207142Y-47288571D01*
X144064285Y-47860000D01*
X144064285Y-48574285D01*
X144207142Y-49145714D01*
X144350000Y-49431428D01*
X144492857Y-49574285D01*
X144778571Y-49717142D01*
X145064285Y-49717142D01*
X145350000Y-49574285D01*
X145492857Y-49431428D01*
X145635714Y-49145714D01*
X145778571Y-48574285D01*
X145778571Y-47860000D01*
X145635714Y-47288571D01*
X145492857Y-47002857D01*
X145350000Y-46860000D01*
X145064285Y-46717142D01*
X142921428Y-47002857D02*
X142778571Y-46860000D01*
X142492857Y-46717142D01*
X141778571Y-46717142D01*
X141492857Y-46860000D01*
X141350000Y-47002857D01*
X141207142Y-47288571D01*
X141207142Y-47574285D01*
X141350000Y-48002857D01*
X143064285Y-49717142D01*
X141207142Y-49717142D01*
X139350000Y-46717142D02*
X139064285Y-46717142D01*
X138778571Y-46860000D01*
X138635714Y-47002857D01*
X138492857Y-47288571D01*
X138350000Y-47860000D01*
X138350000Y-48574285D01*
X138492857Y-49145714D01*
X138635714Y-49431428D01*
X138778571Y-49574285D01*
X139064285Y-49717142D01*
X139350000Y-49717142D01*
X139635714Y-49574285D01*
X139778571Y-49431428D01*
X139921428Y-49145714D01*
X140064285Y-48574285D01*
X140064285Y-47860000D01*
X139921428Y-47288571D01*
X139778571Y-47002857D01*
X139635714Y-46860000D01*
X139350000Y-46717142D01*
X136921428Y-49574285D02*
X136921428Y-49717142D01*
X137064285Y-50002857D01*
X137207142Y-50145714D01*
X135064285Y-46717142D02*
X134778571Y-46717142D01*
X134492857Y-46860000D01*
X134350000Y-47002857D01*
X134207142Y-47288571D01*
X134064285Y-47860000D01*
X134064285Y-48574285D01*
X134207142Y-49145714D01*
X134350000Y-49431428D01*
X134492857Y-49574285D01*
X134778571Y-49717142D01*
X135064285Y-49717142D01*
X135350000Y-49574285D01*
X135492857Y-49431428D01*
X135635714Y-49145714D01*
X135778571Y-48574285D01*
X135778571Y-47860000D01*
X135635714Y-47288571D01*
X135492857Y-47002857D01*
X135350000Y-46860000D01*
X135064285Y-46717142D01*
X131492857Y-46717142D02*
X132064285Y-46717142D01*
X132350000Y-46860000D01*
X132492857Y-47002857D01*
X132778571Y-47431428D01*
X132921428Y-48002857D01*
X132921428Y-49145714D01*
X132778571Y-49431428D01*
X132635714Y-49574285D01*
X132350000Y-49717142D01*
X131778571Y-49717142D01*
X131492857Y-49574285D01*
X131350000Y-49431428D01*
X131207142Y-49145714D01*
X131207142Y-48431428D01*
X131350000Y-48145714D01*
X131492857Y-48002857D01*
X131778571Y-47860000D01*
X132350000Y-47860000D01*
X132635714Y-48002857D01*
X132778571Y-48145714D01*
X132921428Y-48431428D01*
X129778571Y-49574285D02*
X129778571Y-49717142D01*
X129921428Y-50002857D01*
X130064285Y-50145714D01*
X127921428Y-46717142D02*
X127635714Y-46717142D01*
X127350000Y-46860000D01*
X127207142Y-47002857D01*
X127064285Y-47288571D01*
X126921428Y-47860000D01*
X126921428Y-48574285D01*
X127064285Y-49145714D01*
X127207142Y-49431428D01*
X127350000Y-49574285D01*
X127635714Y-49717142D01*
X127921428Y-49717142D01*
X128207142Y-49574285D01*
X128350000Y-49431428D01*
X128492857Y-49145714D01*
X128635714Y-48574285D01*
X128635714Y-47860000D01*
X128492857Y-47288571D01*
X128350000Y-47002857D01*
X128207142Y-46860000D01*
X127921428Y-46717142D01*
X124064285Y-49717142D02*
X125778571Y-49717142D01*
X124921428Y-49717142D02*
X124921428Y-46717142D01*
X125207142Y-47145714D01*
X125492857Y-47431428D01*
X125778571Y-47574285D01*
D12*
X147033333Y-41010000D02*
X147366666Y-40843333D01*
X147866666Y-40843333D01*
X148366666Y-41010000D01*
X148700000Y-41343333D01*
X148866666Y-41676666D01*
X149033333Y-42343333D01*
X149033333Y-42843333D01*
X148866666Y-43510000D01*
X148700000Y-43843333D01*
X148366666Y-44176666D01*
X147866666Y-44343333D01*
X147533333Y-44343333D01*
X147033333Y-44176666D01*
X146866666Y-44010000D01*
X146866666Y-42843333D01*
X147533333Y-42843333D01*
X145366666Y-44343333D02*
X145366666Y-40843333D01*
X144033333Y-40843333D01*
X143700000Y-41010000D01*
X143533333Y-41176666D01*
X143366666Y-41510000D01*
X143366666Y-42010000D01*
X143533333Y-42343333D01*
X143700000Y-42510000D01*
X144033333Y-42676666D01*
X145366666Y-42676666D01*
X142033333Y-44176666D02*
X141533333Y-44343333D01*
X140700000Y-44343333D01*
X140366666Y-44176666D01*
X140200000Y-44010000D01*
X140033333Y-43676666D01*
X140033333Y-43343333D01*
X140200000Y-43010000D01*
X140366666Y-42843333D01*
X140700000Y-42676666D01*
X141366666Y-42510000D01*
X141700000Y-42343333D01*
X141866666Y-42176666D01*
X142033333Y-41843333D01*
X142033333Y-41510000D01*
X141866666Y-41176666D01*
X141700000Y-41010000D01*
X141366666Y-40843333D01*
X140533333Y-40843333D01*
X140033333Y-41010000D01*
X135866666Y-44343333D02*
X135866666Y-40843333D01*
X135033333Y-40843333D01*
X134533333Y-41010000D01*
X134200000Y-41343333D01*
X134033333Y-41676666D01*
X133866666Y-42343333D01*
X133866666Y-42843333D01*
X134033333Y-43510000D01*
X134200000Y-43843333D01*
X134533333Y-44176666D01*
X135033333Y-44343333D01*
X135866666Y-44343333D01*
X130866666Y-44343333D02*
X130866666Y-42510000D01*
X131033333Y-42176666D01*
X131366666Y-42010000D01*
X132033333Y-42010000D01*
X132366666Y-42176666D01*
X130866666Y-44176666D02*
X131200000Y-44343333D01*
X132033333Y-44343333D01*
X132366666Y-44176666D01*
X132533333Y-43843333D01*
X132533333Y-43510000D01*
X132366666Y-43176666D01*
X132033333Y-43010000D01*
X131200000Y-43010000D01*
X130866666Y-42843333D01*
X129700000Y-42010000D02*
X128366666Y-42010000D01*
X129200000Y-40843333D02*
X129200000Y-43843333D01*
X129033333Y-44176666D01*
X128700000Y-44343333D01*
X128366666Y-44343333D01*
X125700000Y-44343333D02*
X125700000Y-42510000D01*
X125866666Y-42176666D01*
X126200000Y-42010000D01*
X126866666Y-42010000D01*
X127200000Y-42176666D01*
X125700000Y-44176666D02*
X126033333Y-44343333D01*
X126866666Y-44343333D01*
X127200000Y-44176666D01*
X127366666Y-43843333D01*
X127366666Y-43510000D01*
X127200000Y-43176666D01*
X126866666Y-43010000D01*
X126033333Y-43010000D01*
X125700000Y-42843333D01*
X121866666Y-40843333D02*
X119866666Y-40843333D01*
X120866666Y-44343333D02*
X120866666Y-40843333D01*
X118700000Y-44343333D02*
X118700000Y-42010000D01*
X118700000Y-42676666D02*
X118533333Y-42343333D01*
X118366666Y-42176666D01*
X118033333Y-42010000D01*
X117700000Y-42010000D01*
X115033333Y-44343333D02*
X115033333Y-42510000D01*
X115200000Y-42176666D01*
X115533333Y-42010000D01*
X116200000Y-42010000D01*
X116533333Y-42176666D01*
X115033333Y-44176666D02*
X115366666Y-44343333D01*
X116200000Y-44343333D01*
X116533333Y-44176666D01*
X116700000Y-43843333D01*
X116700000Y-43510000D01*
X116533333Y-43176666D01*
X116200000Y-43010000D01*
X115366666Y-43010000D01*
X115033333Y-42843333D01*
X113366666Y-42010000D02*
X113366666Y-44343333D01*
X113366666Y-42343333D02*
X113200000Y-42176666D01*
X112866666Y-42010000D01*
X112366666Y-42010000D01*
X112033333Y-42176666D01*
X111866666Y-42510000D01*
X111866666Y-44343333D01*
X110366666Y-44176666D02*
X110033333Y-44343333D01*
X109366666Y-44343333D01*
X109033333Y-44176666D01*
X108866666Y-43843333D01*
X108866666Y-43676666D01*
X109033333Y-43343333D01*
X109366666Y-43176666D01*
X109866666Y-43176666D01*
X110200000Y-43010000D01*
X110366666Y-42676666D01*
X110366666Y-42510000D01*
X110200000Y-42176666D01*
X109866666Y-42010000D01*
X109366666Y-42010000D01*
X109033333Y-42176666D01*
X107366666Y-44343333D02*
X107366666Y-42010000D01*
X107366666Y-42343333D02*
X107200000Y-42176666D01*
X106866666Y-42010000D01*
X106366666Y-42010000D01*
X106033333Y-42176666D01*
X105866666Y-42510000D01*
X105866666Y-44343333D01*
X105866666Y-42510000D02*
X105700000Y-42176666D01*
X105366666Y-42010000D01*
X104866666Y-42010000D01*
X104533333Y-42176666D01*
X104366666Y-42510000D01*
X104366666Y-44343333D01*
X102700000Y-44343333D02*
X102700000Y-42010000D01*
X102700000Y-40843333D02*
X102866666Y-41010000D01*
X102700000Y-41176666D01*
X102533333Y-41010000D01*
X102700000Y-40843333D01*
X102700000Y-41176666D01*
X101533333Y-42010000D02*
X100200000Y-42010000D01*
X101033333Y-40843333D02*
X101033333Y-43843333D01*
X100866666Y-44176666D01*
X100533333Y-44343333D01*
X100200000Y-44343333D01*
X99533333Y-42010000D02*
X98200000Y-42010000D01*
X99033333Y-40843333D02*
X99033333Y-43843333D01*
X98866666Y-44176666D01*
X98533333Y-44343333D01*
X98200000Y-44343333D01*
X95700000Y-44176666D02*
X96033333Y-44343333D01*
X96700000Y-44343333D01*
X97033333Y-44176666D01*
X97200000Y-43843333D01*
X97200000Y-42510000D01*
X97033333Y-42176666D01*
X96700000Y-42010000D01*
X96033333Y-42010000D01*
X95700000Y-42176666D01*
X95533333Y-42510000D01*
X95533333Y-42843333D01*
X97200000Y-43176666D01*
X94033333Y-44343333D02*
X94033333Y-42010000D01*
X94033333Y-42676666D02*
X93866666Y-42343333D01*
X93700000Y-42176666D01*
X93366666Y-42010000D01*
X93033333Y-42010000D01*
D13*
X159765476Y-115512380D02*
X159432142Y-116512380D01*
X159098809Y-115512380D01*
X158336904Y-116464761D02*
X158432142Y-116512380D01*
X158622619Y-116512380D01*
X158717857Y-116464761D01*
X158765476Y-116417142D01*
X158813095Y-116321904D01*
X158813095Y-116036190D01*
X158765476Y-115940952D01*
X158717857Y-115893333D01*
X158622619Y-115845714D01*
X158432142Y-115845714D01*
X158336904Y-115893333D01*
X157479761Y-116464761D02*
X157575000Y-116512380D01*
X157765476Y-116512380D01*
X157860714Y-116464761D01*
X157908333Y-116417142D01*
X157955952Y-116321904D01*
X157955952Y-116036190D01*
X157908333Y-115940952D01*
X157860714Y-115893333D01*
X157765476Y-115845714D01*
X157575000Y-115845714D01*
X157479761Y-115893333D01*
D14*
G04 #@! TO.C,JP1*
X160400000Y-115977000D02*
X160100000Y-115677000D01*
X160100000Y-116277000D02*
X160100000Y-115677000D01*
X160400000Y-115977000D02*
X160100000Y-116277000D01*
X161300000Y-116827000D02*
X161900000Y-116827000D01*
X160600000Y-113377000D02*
X160600000Y-116177000D01*
X161900000Y-112727000D02*
X161300000Y-112727000D01*
X162600000Y-116177000D02*
X162600000Y-113377000D01*
X162600000Y-113427000D02*
G75*
G03X161900000Y-112727000I-700000J0D01*
G01*
X161300000Y-112727000D02*
G75*
G03X160600000Y-113427000I0J-700000D01*
G01*
X160600000Y-116127000D02*
G75*
G03X161300000Y-116827000I700000J0D01*
G01*
X161900000Y-116827000D02*
G75*
G03X162600000Y-116127000I0J700000D01*
G01*
G04 #@! TO.C,BT1*
D13*
X180510714Y-43513571D02*
X180367857Y-43561190D01*
X180320238Y-43608809D01*
X180272619Y-43704047D01*
X180272619Y-43846904D01*
X180320238Y-43942142D01*
X180367857Y-43989761D01*
X180463095Y-44037380D01*
X180844047Y-44037380D01*
X180844047Y-43037380D01*
X180510714Y-43037380D01*
X180415476Y-43085000D01*
X180367857Y-43132619D01*
X180320238Y-43227857D01*
X180320238Y-43323095D01*
X180367857Y-43418333D01*
X180415476Y-43465952D01*
X180510714Y-43513571D01*
X180844047Y-43513571D01*
X179986904Y-43037380D02*
X179415476Y-43037380D01*
X179701190Y-44037380D02*
X179701190Y-43037380D01*
X178558333Y-44037380D02*
X179129761Y-44037380D01*
X178844047Y-44037380D02*
X178844047Y-43037380D01*
X178939285Y-43180238D01*
X179034523Y-43275476D01*
X179129761Y-43323095D01*
D15*
X184140476Y-71924285D02*
X184235714Y-72019523D01*
X184521428Y-72114761D01*
X184711904Y-72114761D01*
X184997619Y-72019523D01*
X185188095Y-71829047D01*
X185283333Y-71638571D01*
X185378571Y-71257619D01*
X185378571Y-70971904D01*
X185283333Y-70590952D01*
X185188095Y-70400476D01*
X184997619Y-70210000D01*
X184711904Y-70114761D01*
X184521428Y-70114761D01*
X184235714Y-70210000D01*
X184140476Y-70305238D01*
X182140476Y-72114761D02*
X182807142Y-71162380D01*
X183283333Y-72114761D02*
X183283333Y-70114761D01*
X182521428Y-70114761D01*
X182330952Y-70210000D01*
X182235714Y-70305238D01*
X182140476Y-70495714D01*
X182140476Y-70781428D01*
X182235714Y-70971904D01*
X182330952Y-71067142D01*
X182521428Y-71162380D01*
X183283333Y-71162380D01*
X181378571Y-70305238D02*
X181283333Y-70210000D01*
X181092857Y-70114761D01*
X180616666Y-70114761D01*
X180426190Y-70210000D01*
X180330952Y-70305238D01*
X180235714Y-70495714D01*
X180235714Y-70686190D01*
X180330952Y-70971904D01*
X181473809Y-72114761D01*
X180235714Y-72114761D01*
X178997619Y-70114761D02*
X178807142Y-70114761D01*
X178616666Y-70210000D01*
X178521428Y-70305238D01*
X178426190Y-70495714D01*
X178330952Y-70876666D01*
X178330952Y-71352857D01*
X178426190Y-71733809D01*
X178521428Y-71924285D01*
X178616666Y-72019523D01*
X178807142Y-72114761D01*
X178997619Y-72114761D01*
X179188095Y-72019523D01*
X179283333Y-71924285D01*
X179378571Y-71733809D01*
X179473809Y-71352857D01*
X179473809Y-70876666D01*
X179378571Y-70495714D01*
X179283333Y-70305238D01*
X179188095Y-70210000D01*
X178997619Y-70114761D01*
X177664285Y-70114761D02*
X176426190Y-70114761D01*
X177092857Y-70876666D01*
X176807142Y-70876666D01*
X176616666Y-70971904D01*
X176521428Y-71067142D01*
X176426190Y-71257619D01*
X176426190Y-71733809D01*
X176521428Y-71924285D01*
X176616666Y-72019523D01*
X176807142Y-72114761D01*
X177378571Y-72114761D01*
X177569047Y-72019523D01*
X177664285Y-71924285D01*
X175664285Y-70305238D02*
X175569047Y-70210000D01*
X175378571Y-70114761D01*
X174902380Y-70114761D01*
X174711904Y-70210000D01*
X174616666Y-70305238D01*
X174521428Y-70495714D01*
X174521428Y-70686190D01*
X174616666Y-70971904D01*
X175759523Y-72114761D01*
X174521428Y-72114761D01*
G04 #@! TO.C,JP1*
D13*
X162383333Y-111262380D02*
X162383333Y-111976666D01*
X162430952Y-112119523D01*
X162526190Y-112214761D01*
X162669047Y-112262380D01*
X162764285Y-112262380D01*
X161907142Y-112262380D02*
X161907142Y-111262380D01*
X161526190Y-111262380D01*
X161430952Y-111310000D01*
X161383333Y-111357619D01*
X161335714Y-111452857D01*
X161335714Y-111595714D01*
X161383333Y-111690952D01*
X161430952Y-111738571D01*
X161526190Y-111786190D01*
X161907142Y-111786190D01*
X160383333Y-112262380D02*
X160954761Y-112262380D01*
X160669047Y-112262380D02*
X160669047Y-111262380D01*
X160764285Y-111405238D01*
X160859523Y-111500476D01*
X160954761Y-111548095D01*
X165192857Y-117488571D02*
X165050000Y-117536190D01*
X165002380Y-117583809D01*
X164954761Y-117679047D01*
X164954761Y-117821904D01*
X165002380Y-117917142D01*
X165050000Y-117964761D01*
X165145238Y-118012380D01*
X165526190Y-118012380D01*
X165526190Y-117012380D01*
X165192857Y-117012380D01*
X165097619Y-117060000D01*
X165050000Y-117107619D01*
X165002380Y-117202857D01*
X165002380Y-117298095D01*
X165050000Y-117393333D01*
X165097619Y-117440952D01*
X165192857Y-117488571D01*
X165526190Y-117488571D01*
X164335714Y-117012380D02*
X164145238Y-117012380D01*
X164050000Y-117060000D01*
X163954761Y-117155238D01*
X163907142Y-117345714D01*
X163907142Y-117679047D01*
X163954761Y-117869523D01*
X164050000Y-117964761D01*
X164145238Y-118012380D01*
X164335714Y-118012380D01*
X164430952Y-117964761D01*
X164526190Y-117869523D01*
X164573809Y-117679047D01*
X164573809Y-117345714D01*
X164526190Y-117155238D01*
X164430952Y-117060000D01*
X164335714Y-117012380D01*
X163288095Y-117012380D02*
X163097619Y-117012380D01*
X163002380Y-117060000D01*
X162907142Y-117155238D01*
X162859523Y-117345714D01*
X162859523Y-117679047D01*
X162907142Y-117869523D01*
X163002380Y-117964761D01*
X163097619Y-118012380D01*
X163288095Y-118012380D01*
X163383333Y-117964761D01*
X163478571Y-117869523D01*
X163526190Y-117679047D01*
X163526190Y-117345714D01*
X163478571Y-117155238D01*
X163383333Y-117060000D01*
X163288095Y-117012380D01*
X162573809Y-117012380D02*
X162002380Y-117012380D01*
X162288095Y-118012380D02*
X162288095Y-117012380D01*
X160907142Y-118012380D02*
X160907142Y-117012380D01*
X160573809Y-117726666D01*
X160240476Y-117012380D01*
X160240476Y-118012380D01*
X159621428Y-118012380D02*
X159716666Y-117964761D01*
X159764285Y-117917142D01*
X159811904Y-117821904D01*
X159811904Y-117536190D01*
X159764285Y-117440952D01*
X159716666Y-117393333D01*
X159621428Y-117345714D01*
X159478571Y-117345714D01*
X159383333Y-117393333D01*
X159335714Y-117440952D01*
X159288095Y-117536190D01*
X159288095Y-117821904D01*
X159335714Y-117917142D01*
X159383333Y-117964761D01*
X159478571Y-118012380D01*
X159621428Y-118012380D01*
X158430952Y-118012380D02*
X158430952Y-117012380D01*
X158430952Y-117964761D02*
X158526190Y-118012380D01*
X158716666Y-118012380D01*
X158811904Y-117964761D01*
X158859523Y-117917142D01*
X158907142Y-117821904D01*
X158907142Y-117536190D01*
X158859523Y-117440952D01*
X158811904Y-117393333D01*
X158716666Y-117345714D01*
X158526190Y-117345714D01*
X158430952Y-117393333D01*
X157573809Y-117964761D02*
X157669047Y-118012380D01*
X157859523Y-118012380D01*
X157954761Y-117964761D01*
X158002380Y-117869523D01*
X158002380Y-117488571D01*
X157954761Y-117393333D01*
X157859523Y-117345714D01*
X157669047Y-117345714D01*
X157573809Y-117393333D01*
X157526190Y-117488571D01*
X157526190Y-117583809D01*
X158002380Y-117679047D01*
G04 #@! TD*
M02*
