M48
; DRILL file {KiCad (5.1.5)-3} date 2020-06-01 오후 7:43:42
; FORMAT={-:-/ absolute / inch / decimal}
; #@! TF.CreationDate,2020-06-01T19:43:42+09:00
; #@! TF.GenerationSoftware,Kicad,Pcbnew,(5.1.5)-3
FMAT,2
INCH
T1C0.0157
T2C0.0236
T3C0.0300
T4C0.0315
T5C0.0362
T6C0.0394
T7C0.0591
T8C0.0917
T9C0.1260
%
G90
G05
T1
X3.7067Y-1.2333
X3.7067Y-1.2633
X3.7067Y-1.2933
X3.7106Y-3.3961
X3.75Y-1.72
X3.75Y-1.75
X3.7559Y-1.4241
X3.7559Y-1.4641
X3.7559Y-1.5041
X3.7559Y-1.5541
X3.7559Y-1.6041
X3.7559Y-1.6441
X3.7559Y-1.6841
X3.7694Y-1.1606
X3.772Y-1.778
X3.7994Y-1.1606
X3.802Y-1.778
X3.8294Y-1.1606
X3.832Y-1.778
X3.8376Y-3.3803
X3.84Y-1.71
X3.842Y-1.4253
X3.842Y-1.458
X3.842Y-1.488
X3.842Y-1.608
X3.842Y-1.638
X3.8425Y-1.6675
X3.8425Y-1.7475
X3.8637Y-1.4037
X3.87Y-3.41
X3.9067Y-1.2233
X3.9067Y-1.2533
X3.9067Y-1.2833
X3.9626Y-4.1461
X3.9705Y-4.7091
X3.9768Y-4.4343
X3.978Y-4.1894
X4.0659Y-4.9719
X4.09Y-5.01
X4.09Y-5.12
X4.0955Y-2.5329
X4.1156Y-2.4782
X4.1181Y-4.4807
X4.128Y-2.8961
X4.1333Y-2.1878
X4.1407Y-3.4256
X4.1535Y-4.7878
X4.1772Y-2.1874
X4.2Y-2.27
X4.2106Y-5.0197
X4.22Y-5.12
X4.22Y-5.2
X4.2205Y-2.1874
X4.248Y-1.9856
X4.249Y-4.1785
X4.25Y-3.93
X4.2864Y-4.211
X4.2945Y-4.2854
X4.31Y-2.9187
X4.3205Y-3.4106
X4.3209Y-4.4817
X4.3366Y-3.0732
X4.3455Y-2.9748
X4.3576Y-4.9638
X4.3612Y-5.0516
X4.3622Y-4.2061
X4.3661Y-1.9394
X4.3947Y-3.4837
X4.3947Y-3.9049
X4.3957Y-4.2041
X4.3976Y-3.7396
X4.4075Y-3.9591
X4.4124Y-2.213
X4.4262Y-3.2967
X4.4291Y-3.15
X4.4331Y-4.2041
X4.4498Y-3.0083
X4.4646Y-4.1303
X4.4656Y-3.4492
X4.4665Y-3.3961
X4.4665Y-4.0083
X4.4685Y-3.6992
X4.4695Y-2.1352
X4.4764Y-4.3675
X4.4951Y-2.5339
X4.498Y-4.2041
X4.499Y-3.4758
X4.5335Y-2.9787
X4.5335Y-3.1441
X4.5404Y-2.4079
X4.5413Y-3.9059
X4.5472Y-4.277
X4.5561Y-4.65
X4.5581Y-2.0006
X4.56Y-4.0014
X4.5709Y-3.6323
X4.5709Y-3.8301
X4.5719Y-3.4472
X4.5807Y-2.7091
X4.5949Y-4.4697
X4.5974Y-4.964
X4.6076Y-4.5538
X4.6122Y-4.152
X4.6309Y-3.0398
X4.6417Y-4.7632
X4.6476Y-4.9138
X4.6514Y-4.3085
X4.6514Y-4.651
X4.6634Y-3.5713
X4.6676Y-3.0738
X4.67Y-3.29
X4.67Y-3.34
X4.67Y-3.4
X4.687Y-4.1943
X4.69Y-2.9433
X4.69Y-2.9758
X4.6968Y-4.136
X4.6988Y-3.9797
X4.7057Y-4.0191
X4.7134Y-4.65
X4.7203Y-3.9256
X4.7203Y-4.115
X4.7402Y-2.7533
X4.7449Y-4.65
X4.748Y-4.3744
X4.7645Y-4.4669
X4.7676Y-4.5638
X4.7764Y-4.65
X4.7815Y-4.7819
X4.8051Y-4.7012
X4.8055Y-3.3378
X4.8059Y-3.7415
X4.8059Y-4.0752
X4.8059Y-4.2632
X4.8711Y-3.8104
X4.875Y-4.1835
X4.877Y-4.024
X4.878Y-3.4472
X4.878Y-3.7317
X4.878Y-4.0781
X4.8789Y-3.5457
X4.8789Y-4.3281
X4.88Y-4.71
X4.8868Y-3.3311
X4.898Y-3.5206
X4.91Y-4.68
X4.9301Y-4.4167
X4.9675Y-3.4896
X4.9675Y-3.528
X4.9675Y-3.6382
X4.9732Y-3.7272
X4.9774Y-3.0722
X4.9803Y-3.8065
X4.9876Y-3.3438
X5.0256Y-4.0378
X5.0256Y-4.0772
X5.0354Y-3.5565
X5.063Y-3.4827
X5.065Y-2.8124
X5.065Y-4.1953
X5.065Y-4.274
X5.0797Y-3.7799
X5.0797Y-3.8311
X5.0915Y-3.147
X5.1043Y-4.0772
X5.1043Y-4.1953
X5.1043Y-4.274
X5.1211Y-2.8656
X5.127Y-4.0073
X5.1273Y-4.3848
X5.1516Y-2.8902
X5.157Y-4.4871
X5.1703Y-2.8213
X5.19Y-3.0152
X5.19Y-3.5407
X5.1947Y-3.8151
X5.1949Y-2.7091
X5.2067Y-3.6008
X5.2087Y-3.6628
X5.2244Y-2.2022
X5.2343Y-4.0161
X5.2411Y-3.9807
X5.25Y-4.33
X5.25Y-4.45
X5.2677Y-3.5998
X5.2697Y-3.6638
X5.2707Y-4.088
X5.28Y-4.35
X5.2976Y-3.3038
X5.3Y-4.45
X5.3307Y-3.4541
X5.3406Y-3.7878
X5.35Y-4.45
X5.3543Y-4.0358
X5.3695Y-4.314
X5.38Y-4.8
X5.3986Y-3.8144
X5.4059Y-4.3504
X5.4144Y-4.1638
X5.4213Y-2.337
X5.4331Y-3.6815
X5.4803Y-3.6274
X5.4911Y-3.8134
X5.5Y-2.3764
X5.512Y-4.0634
X5.5236Y-4.2396
X5.5467Y-4.1317
X5.5522Y-3.9659
X5.561Y-2.152
X5.5625Y-4.1938
X5.5625Y-4.1938
X5.5829Y-3.8953
X5.6004Y-2.5191
X5.623Y-3.8587
X5.624Y-3.1451
X5.6354Y-3.9039
X5.6467Y-3.5811
X5.6594Y-2.9768
X5.66Y-4.93
X5.6624Y-3.0624
X5.6655Y-3.8015
X5.67Y-4.8
X5.697Y-4.5308
X5.7043Y-3.9031
X5.7057Y-2.3173
X5.7195Y-3.2406
X5.7274Y-3.7711
X5.73Y-4.86
X5.7431Y-3.5033
X5.7539Y-3.8951
X5.7549Y-2.9374
X5.7608Y-4.9541
X5.7677Y-3.4433
X5.7827Y-2.9571
X5.8002Y-2.8921
X5.8051Y-3.9709
X5.8071Y-3.0191
X5.8076Y-3.0638
X5.812Y-3.4118
X5.8169Y-4.1805
X5.8327Y-1.5949
X5.85Y-4.73
X5.86Y-3.8239
X5.8652Y-4.8744
X5.8711Y-4.6795
X5.8801Y-3.0211
X5.8888Y-2.9413
X5.8947Y-2.9768
X5.8951Y-4.3126
X5.8953Y-4.3978
X5.8986Y-3.3961
X5.8996Y-2.4925
X5.9006Y-1.6165
X5.9006Y-2.5407
X5.9006Y-4.7514
X5.9008Y-2.8695
X5.9016Y-3.0752
X5.9031Y-2.2634
X5.9076Y-3.5738
X5.9114Y-2.5988
X5.9144Y-2.4128
X5.9258Y-4.4234
X5.9272Y-4.5482
X5.9277Y-2.0777
X5.9281Y-3.3094
X5.9291Y-4.9738
X5.9331Y-2.3469
X5.9429Y-4.0654
X5.9439Y-3.6904
X5.9449Y-4.1283
X5.9469Y-3.3922
X5.9542Y-2.1485
X5.9557Y-4.6972
X5.9587Y-4.3252
X5.9852Y-3.0713
X5.9861Y-4.4856
X6.0119Y-4.3694
X6.0146Y-3.7512
X6.0148Y-2.9935
X6.0177Y-2.4118
X6.0207Y-2.9433
X6.0217Y-2.5998
X6.0276Y-2.3449
X6.0364Y-2.9706
X6.0543Y-2.649
X6.06Y-3.0309
X6.064Y-3.7061
X6.0693Y-1.5512
X6.0719Y-3.3922
X6.0738Y-3.3114
X6.0778Y-4.5583
X6.0807Y-3.2553
X6.0896Y-4.4374
X6.0945Y-3.5654
X6.0974Y-2.3764
X6.1033Y-4.1894
X6.1066Y-3.7087
X6.1211Y-4.0732
X6.125Y-3.9108
X6.1407Y-2.5988
X6.149Y-3.7549
X6.1575Y-4.3331
X6.1624Y-5.1766
X6.1673Y-1.5575
X6.1679Y-3.1258
X6.1732Y-3.401
X6.1801Y-4.6756
X6.1811Y-4.4364
X6.1811Y-4.4679
X6.185Y-4.3626
X6.186Y-4.215
X6.1925Y-4.4973
X6.2018Y-4.0201
X6.2018Y-3.6731
X6.2037Y-4.5575
X6.2138Y-4.5204
X6.2233Y-3.1198
X6.2313Y-3.7209
X6.2403Y-3.4808
X6.2411Y-4.2219
X6.2517Y-4.2983
X6.2539Y-4.7543
X6.2579Y-3.6963
X6.2616Y-3.2476
X6.2736Y-2.3026
X6.275Y-3.779
X6.2776Y-2.0211
X6.2815Y-5.1805
X6.2884Y-4.8764
X6.3061Y-4.337
X6.3076Y-1.6928
X6.3179Y-4.7829
X6.3199Y-4.7091
X6.3209Y-3.6008
X6.3268Y-1.5162
X6.3294Y-4.8716
X6.3327Y-4.1293
X6.3327Y-4.2031
X6.3356Y-4.4266
X6.3553Y-3.4258
X6.3573Y-4.5831
X6.3623Y-4.5188
X6.3671Y-3.9945
X6.3809Y-3.3528
X6.3839Y-3.7425
X6.3839Y-4.4531
X6.3858Y-1.2803
X6.3888Y-3.1126
X6.3937Y-3.2967
X6.3996Y-3.4817
X6.4016Y-3.7996
X6.4018Y-3.9049
X6.4033Y-3.3808
X6.4045Y-4.3695
X6.4193Y-5.086
X6.44Y-3.1224
X6.4429Y-4.7386
X6.4449Y-4.5969
X6.4508Y-4.5191
X6.4675Y-3.1884
X6.4726Y-4.8961
X6.4764Y-4.402
X6.4783Y-3.3518
X6.4951Y-4.5969
X6.497Y-3.9217
X6.502Y-3.8114
X6.5197Y-4.5112
X6.5226Y-3.961
X6.5277Y-4.5961
X6.5344Y-3.777
X6.5533Y-4.4547
X6.5669Y-3.8213
X6.5679Y-3.8862
X6.5778Y-5.0998
X6.5807Y-5.2091
X6.5965Y-4.2287
X6.6035Y-2.1969
X6.6056Y-2.384
X6.6118Y-4.6071
X6.6199Y-4.7787
X6.6201Y-3.278
X6.6201Y-4.9335
X6.628Y-3.8774
X6.6299Y-3.3961
X6.6299Y-3.5329
X6.6358Y-3.6313
X6.6378Y-4.3277
X6.6476Y-3.9138
X6.6555Y-4.8961
X6.6576Y-4.7388
X6.6663Y-4.4276
X6.6673Y-4.4984
X6.6713Y-3.8833
X6.6762Y-4.0988
X6.7096Y-4.7179
X6.7106Y-3.025
X6.7441Y-4.148
X6.7933Y-4.3134
X6.7972Y-3.5332
X6.7982Y-4.8823
X6.7992Y-3.9187
X6.8091Y-4.5693
X6.81Y-4.2553
X6.815Y-4.085
X6.8209Y-4.151
X6.8228Y-4.7514
X6.8268Y-3.8567
X6.8563Y-3.022
X6.8593Y-4.3516
X6.8799Y-3.7396
X6.8829Y-4.1657
X6.8888Y-4.273
X6.9035Y-3.4856
X6.9055Y-4.085
X6.9163Y-3.8144
X6.9203Y-4.4945
X6.937Y-4.7346
X6.9419Y-4.1254
X6.9429Y-4.1864
X6.9478Y-4.3104
X6.9587Y-3.1953
X6.9636Y-4.6313
X6.9744Y-4.9
X7.0053Y-4.1998
X7.0098Y-4.0506
X7.0295Y-4.2691
X7.0344Y-4.8203
X7.0394Y-4.4394
X7.0423Y-4.2219
X7.063Y-3.9591
X7.0787Y-4.7661
X7.0965Y-4.9295
X7.1161Y-4.1274
X7.1252Y-3.327
X7.1358Y-2.9039
X7.1388Y-3.964
X7.1486Y-4.1687
X7.1516Y-1.085
X7.1516Y-1.1638
X7.1575Y-3.5142
X7.1594Y-4.7415
X7.1791Y-4.0644
X7.1999Y-3.969
X7.2087Y-2.8675
X7.2303Y-1.085
X7.2303Y-1.1638
X7.2598Y-4.1264
X7.2756Y-3.147
X7.3091Y-1.085
X7.3091Y-1.1638
X7.3524Y-3.585
X7.3524Y-3.6244
X7.3587Y-1.9433
X7.3878Y-1.085
X7.3878Y-1.1638
X7.3917Y-3.6244
X7.4449Y-2.6451
X7.4555Y-3.5161
X7.4598Y-3.0217
X7.4665Y-1.085
X7.4665Y-1.1638
T2
X4.4213Y-1.3508
X4.4232Y-1.4236
X4.503Y-2.2583
X4.5906Y-2.3577
X4.7008Y-2.3567
X5.2461Y-2.4236
X5.3583Y-2.4236
X5.5459Y-3.5057
X5.6326Y-3.419
X5.6801Y-3.3715
X5.8917Y-4.2386
X6.0187Y-4.213
X6.0639Y-2.1365
X6.5206Y-2.0262
X6.7303Y-3.4906
X6.7441Y-3.7839
X6.7441Y-3.8193
X7.1079Y-3.1717
T3
X5.9965Y-3.2953
X6.0965Y-3.1953
X6.1965Y-3.2953
T4
X7.335Y-2.8961
X7.435Y-2.8961
X4.0965Y-1.1835
X4.1965Y-1.1835
X4.2965Y-1.1835
X4.3965Y-1.1835
X5.9449Y-1.6807
X5.9449Y-1.9807
X6.0449Y-1.6807
X6.0449Y-1.9807
X5.9449Y-1.1295
X5.9449Y-1.4295
X6.0449Y-1.1295
X6.0449Y-1.4295
X6.1449Y-1.1295
X6.1449Y-1.4295
X6.2449Y-1.1295
X6.2449Y-1.4295
T5
X6.6496Y-1.5772
X6.6496Y-1.6559
X6.748Y-1.5772
X6.748Y-1.6559
T6
X3.7067Y-2.7091
X3.7067Y-2.8173
X3.8051Y-2.7091
X3.8051Y-2.8173
X3.9035Y-2.7091
X3.9035Y-2.8173
X4.2382Y-2.7091
X4.2382Y-2.8173
X4.3465Y-2.7091
X4.3465Y-2.8173
X4.435Y-2.7091
X4.435Y-2.8173
X5.498Y-5.7701
X5.498Y-5.8685
X5.498Y-5.9669
X5.498Y-6.0654
X5.6949Y-5.7701
X5.6949Y-5.8685
X5.6949Y-5.9669
X5.6949Y-6.0654
X5.8917Y-5.7701
X5.8917Y-5.8685
X5.8917Y-5.9669
X5.8917Y-6.0654
X6.0886Y-5.7701
X6.0886Y-5.8685
X6.0886Y-5.9669
X6.0886Y-6.0654
X6.4039Y-1.8277
X6.4103Y-2.1365
X5.2402Y-1.1244
X5.3465Y-2.5598
X5.3465Y-2.6598
X5.4465Y-2.5598
X5.4465Y-2.6598
X5.5465Y-2.5598
X5.5465Y-2.6598
X5.6465Y-2.5598
X5.6465Y-2.6598
X5.752Y-1.1244
X4.2134Y-1.5791
X4.3134Y-1.5791
X4.4134Y-1.5791
X7.2659Y-4.2457
X7.2659Y-4.3457
X7.2659Y-4.4457
X7.2659Y-4.5457
X7.2659Y-4.6457
X7.2659Y-4.7457
X7.2659Y-4.8457
X7.2659Y-4.9457
X7.2659Y-5.0457
X7.2659Y-5.1457
X7.3659Y-4.2457
X7.3659Y-4.3457
X7.3659Y-4.4457
X7.3659Y-4.5457
X7.3659Y-4.6457
X7.3659Y-4.7457
X7.3659Y-4.8457
X7.3659Y-4.9457
X7.3659Y-5.0457
X7.3659Y-5.1457
X3.7773Y-4.3708
X3.7773Y-4.4708
X3.7773Y-4.5708
X3.8773Y-4.3708
X3.8773Y-4.4708
X3.8773Y-4.5708
X4.0413Y-3.211
X4.1413Y-3.211
X4.2413Y-3.211
X4.3413Y-3.211
X4.4413Y-3.211
X4.5413Y-3.211
X4.6413Y-3.211
X4.7413Y-3.211
X4.8413Y-3.211
X4.9413Y-3.211
X5.0413Y-3.211
X5.1413Y-3.211
X5.2413Y-3.211
X5.3413Y-3.211
X5.4413Y-3.211
X5.5413Y-3.211
X4.5807Y-1.1244
X4.687Y-2.5598
X4.687Y-2.6598
X4.787Y-2.5598
X4.787Y-2.6598
X4.887Y-2.5598
X4.887Y-2.6598
X4.987Y-2.5598
X4.987Y-2.6598
X5.0925Y-1.1244
X3.7805Y-3.8596
X3.7805Y-3.9596
X3.7805Y-4.0596
T7
X3.7067Y-1.1606
X3.7067Y-1.3606
X3.8067Y-1.2606
X3.9067Y-1.1606
X3.9067Y-1.3606
T8
X6.4618Y-1.4705
X6.9358Y-1.4705
T9
X3.9961Y-3.4984
X6.2618Y-1.8331
X6.0189Y-3.8488
X7.4272Y-1.7669
X4.2904Y-1.4266
X5.5768Y-5.6362
X3.8051Y-5.6362
X7.3484Y-5.6362
T6
G00X7.124Y-1.4492
M15
G01X7.124Y-1.528
M16
G05
G00X7.3484Y-1.3705
M15
G01X7.2697Y-1.3705
M16
G05
G00X7.3484Y-1.6067
M15
G01X7.2697Y-1.6067
M16
G05
T0
M30
